<svg xmlns="http://www.w3.org/2000/svg" viewBox="0 0 120 60" fill="white">
  <path d="M35,30 C35,18.95 43.95,10 55,10 C66.05,10 75,18.95 75,30 C75,41.05 66.05,50 55,50 C43.95,50 35,41.05 35,30 Z M40,30 C40,38.28 46.72,45 55,45 C63.28,45 70,38.28 70,30 C70,21.72 63.28,15 55,15 C46.72,15 40,21.72 40,30 Z" />
  <path d="M60,20 L60,25 C63.31,25 66,27.69 66,31 C66,34.31 63.31,37 60,37 L60,42 C66.08,42 71,36.63 71,31 C71,25.37 66.08,20 60,20 Z" />
  <path d="M50,20 L50,25 C46.69,25 44,27.69 44,31 C44,34.31 46.69,37 50,37 L50,42 C43.92,42 39,36.63 39,31 C39,25.37 43.92,20 50,20 Z" />
</svg> 